{"title":"A Walk Among the Tombstones 2014 KORSUB HDRIP XVID AC3 ACAB","uid":11135242,"size":1300275190,"categoryP":"video","categoryS":"movies","magnet":"?xt=urn:btih:cdfd10ce90726eadc746e822548cc71c75e2804b&amp;dn=A+Walk+Among+the+Tombstones+2014+KORSUB+HDRIP+XVID+AC3+ACAB&amp;tr=udp%3A%2F%2Ftracker.openbittorrent.com%3A80&amp;tr=udp%3A%2F%2Fopen.demonii.com%3A1337&amp;tr=udp%3A%2F%2Ftracker.coppersurfer.tk%3A6969&amp;tr=udp%3A%2F%2Fexodus.desync.com%3A6969","seeders":19,"leechers":1,"uploader":"xxxlavalxxx","files":-1,"time":1412102397,"description":"[IMG]http://i.imgur.com/FwbAuLT.jpg[/IMG]\n\n &lt;a href=&quot;\nhttp://www.imdb.com/title/tt0365907/&quot; rel=&quot;nofollow&quot; target=&quot;_NEW&quot;&gt;\nhttp://www.imdb.com/title/tt0365907/&lt;/a&gt;\n\n\nPrivate investigator Matthew Scudder is hired by a drug kingpin to find out who kidnapped and murdered his wife.\n\nDirector: Scott Frank\nWriters: Scott Frank (screenplay), Lawrence Block (novel)\nStars: Liam Neeson, Dan Stevens, David Harbour\nGenres: Crime,Drama,Mystery,Thriller\nCountry: USA\nLanguage: English,Spanish\n\n\nFormat                                   : AVI\nFormat/Info                              : Audio Video Interleave\nFile size                                : 1.19 GiB\nDuration                                 : 1h 53mn\nOverall bit rate                         : 1 494 Kbps\n\nVideo\nID                                       : 0\nFormat                                   : MPEG-4 Visual\nFormat profile                           : Advanced Simple@L5\nFormat settings, BVOP                    : 2\nFormat settings, QPel                    : No\nFormat settings, GMC                     : No warppoints\nFormat settings, Matrix                  : Default (H.263)\nMuxing mode                              : Packed bitstream\nCodec ID                                 : XVID\nCodec ID/Hint                            : XviD\nDuration                                 : 1h 53mn\nBit rate                                 : 1 293 Kbps\nWidth                                    : 720 pixels\nHeight                                   : 304 pixels\nDisplay aspect ratio                     : 2.35:1\nFrame rate                               : 29.970 fps\nColor space                              : YUV\nChroma subsampling                       : 4:2:0\nBit depth                                : 8 bits\nScan type                                : Progressive\nCompression mode                         : Lossy\nBits/(Pixel*Frame)                       : 0.197\nStream size                              : 1.03 GiB (87%)\nWriting library                          : XviD 65\n\nAudio\nID                                       : 1\nFormat                                   : AC-3\nFormat/Info                              : Audio Coding 3\nMode extension                           : CM (complete main)\nFormat settings, Endianness              : Big\nCodec ID                                 : 2000\nDuration                                 : 1h 53mn\nBit rate mode                            : Constant\nBit rate                                 : 192 Kbps\nChannel(s)                               : 2 channels\nChannel positions                        : Front: L R\nSampling rate                            : 48.0 KHz\nBit depth                                : 16 bits\nCompression mode                         : Lossy\nStream size                              : 156 MiB (13%)\nAlignment                                : Aligned on interleaves\nInterleave, duration                     : 64 ms (1.92 video frames)\nInterleave, preload duration             : 192 ms\nTitle                                    : English\n\n\nscreens\n &lt;a href=&quot;\nhttp://i.imgur.com/5NP5dSt.png&quot; rel=&quot;nofollow&quot; target=&quot;_NEW&quot;&gt;\nhttp://i.imgur.com/5NP5dSt.png&lt;/a&gt; &lt;a href=&quot;\nhttp://i.imgur.com/AuLOHEg.png&quot; rel=&quot;nofollow&quot; target=&quot;_NEW&quot;&gt;\nhttp://i.imgur.com/AuLOHEg.png&lt;/a&gt; &lt;a href=&quot;\nhttp://i.imgur.com/xfJqhr8.png&quot; rel=&quot;nofollow&quot; target=&quot;_NEW&quot;&gt;\nhttp://i.imgur.com/xfJqhr8.png&lt;/a&gt; &lt;a href=&quot;\nhttp://i.imgur.com/5GcG2d9.png&quot; rel=&quot;nofollow&quot; target=&quot;_NEW&quot;&gt;\nhttp://i.imgur.com/5GcG2d9.png&lt;/a&gt;","torrent":{"xt":"urn:btih:cdfd10ce90726eadc746e822548cc71c75e2804b","amp;dn":"A+Walk+Among+the+Tombstones+2014+KORSUB+HDRIP+XVID+AC3+ACAB","amp;tr":["udp%3A%2F%2Ftracker.openbittorrent.com%3A80","udp%3A%2F%2Fopen.demonii.com%3A1337","udp%3A%2F%2Ftracker.coppersurfer.tk%3A6969","udp%3A%2F%2Fexodus.desync.com%3A6969"],"infoHash":"cdfd10ce90726eadc746e822548cc71c75e2804b","infoHashBuffer":{"type":"Buffer","data":[205,253,16,206,144,114,110,173,199,70,232,34,84,140,199,28,117,226,128,75]},"announce":[],"urlList":[]}}